<svg version="1.1" xmlns="http://www.w3.org/2000/svg" xmlns:xlink="http://www.w3.org/1999/xlink" viewBox="0,0,1024,1024">
	<desc>group_add icon - Licensed under Apache License v2.0 (http://www.apache.org/licenses/LICENSE-2.0) - Created with Iconfu.com - Derivative work of Material icons (Copyright Google Inc.)</desc>
	<g fill="none" fill-rule="nonzero" style="mix-blend-mode: normal">
		<path d="M874.04,874.04c-199.95,199.95 -524.13,199.95 -724.08,0c-199.95,-199.95 -199.95,-524.13 0,-724.08c199.95,-199.95 524.13,-199.95 724.08,0c199.95,199.95 199.95,524.13 0,724.08zM429.7,481.14h-61.73v-61.73h-41.15v61.73h-61.73v41.15h61.73v61.73h41.15v-61.73h61.73zM532.58,542.86c-41.15,0 -123.45,20.58 -123.45,61.73v41.15h246.9v-41.15c0,-41.15 -82.3,-61.73 -123.45,-61.73zM532.58,501.71c34.16,0 61.52,-27.57 61.52,-61.73c0,-34.16 -27.36,-61.73 -61.52,-61.73c-34.16,0 -61.73,27.57 -61.73,61.73c0,34.16 27.57,61.73 61.73,61.73zM635.45,501.71c34.16,0 61.52,-27.57 61.52,-61.73c0,-34.16 -27.36,-61.73 -61.52,-61.73c-6.58,0 -12.96,1.03 -18.72,2.88c11.73,16.67 18.52,36.83 18.52,58.84c0,22.01 -7,41.97 -18.52,58.85c5.76,1.85 12.14,2.88 18.72,2.88zM668.78,546.15c17.08,15.02 28.39,34.16 28.39,58.44v41.15h61.73v-41.15c0,-31.69 -48.76,-51.24 -90.12,-58.44z" fill-opacity="0.25" fill="#1de9b6"/>
		<path d="M845.08,845.08c-183.95,183.95 -482.2,183.95 -666.15,0c-183.95,-183.95 -183.95,-482.2 0,-666.15c183.95,-183.95 482.2,-183.95 666.15,0c183.95,183.95 183.95,482.2 0,666.15zM429.7,481.14h-61.73v-61.73h-41.15v61.73h-61.73v41.15h61.73v61.73h41.15v-61.73h61.73zM532.58,542.86c-41.15,0 -123.45,20.58 -123.45,61.73v41.15h246.9v-41.15c0,-41.15 -82.3,-61.73 -123.45,-61.73zM532.58,501.71c34.16,0 61.52,-27.57 61.52,-61.73c0,-34.16 -27.36,-61.73 -61.52,-61.73c-34.16,0 -61.73,27.57 -61.73,61.73c0,34.16 27.57,61.73 61.73,61.73zM635.45,501.71c34.16,0 61.52,-27.57 61.52,-61.73c0,-34.16 -27.36,-61.73 -61.52,-61.73c-6.58,0 -12.96,1.03 -18.72,2.88c11.73,16.67 18.52,36.83 18.52,58.84c0,22.01 -7,41.97 -18.52,58.85c5.76,1.85 12.14,2.88 18.72,2.88zM668.78,546.15c17.08,15.02 28.39,34.16 28.39,58.44v41.15h61.73v-41.15c0,-31.69 -48.76,-51.24 -90.12,-58.44z" fill-opacity="0.3" fill="#1de9b6"/>
		<path d="M815.1,815.1c-167.4,167.4 -438.8,167.4 -606.2,0c-167.4,-167.4 -167.4,-438.8 0,-606.2c167.4,-167.4 438.8,-167.4 606.2,0c167.4,167.4 167.4,438.8 0,606.2zM429.7,481.14h-61.73v-61.73h-41.15v61.73h-61.73v41.15h61.73v61.73h41.15v-61.73h61.73zM532.58,542.86c-41.15,0 -123.45,20.58 -123.45,61.73v41.15h246.9v-41.15c0,-41.15 -82.3,-61.73 -123.45,-61.73zM532.58,501.71c34.16,0 61.52,-27.57 61.52,-61.73c0,-34.16 -27.36,-61.73 -61.52,-61.73c-34.16,0 -61.73,27.57 -61.73,61.73c0,34.16 27.57,61.73 61.73,61.73zM635.45,501.71c34.16,0 61.52,-27.57 61.52,-61.73c0,-34.16 -27.36,-61.73 -61.52,-61.73c-6.58,0 -12.96,1.03 -18.72,2.88c11.73,16.67 18.52,36.83 18.52,58.84c0,22.01 -7,41.97 -18.52,58.85c5.76,1.85 12.14,2.88 18.72,2.88zM668.78,546.15c17.08,15.02 28.39,34.16 28.39,58.44v41.15h61.73v-41.15c0,-31.69 -48.76,-51.24 -90.12,-58.44z" fill-opacity="0.5" fill="#1de9b6"/>
		<path d="M784.79,784.79c-150.66,150.66 -394.92,150.66 -545.58,0c-150.66,-150.66 -150.66,-394.92 0,-545.58c150.66,-150.66 394.92,-150.66 545.58,0c150.66,150.66 150.66,394.92 0,545.58zM429.7,481.14h-61.73v-61.73h-41.15v61.73h-61.73v41.15h61.73v61.73h41.15v-61.73h61.73zM532.58,542.86c-41.15,0 -123.45,20.58 -123.45,61.73v41.15h246.9v-41.15c0,-41.15 -82.3,-61.73 -123.45,-61.73zM532.58,501.71c34.16,0 61.52,-27.57 61.52,-61.73c0,-34.16 -27.36,-61.73 -61.52,-61.73c-34.16,0 -61.73,27.57 -61.73,61.73c0,34.16 27.57,61.73 61.73,61.73zM635.45,501.71c34.16,0 61.52,-27.57 61.52,-61.73c0,-34.16 -27.36,-61.73 -61.52,-61.73c-6.58,0 -12.96,1.03 -18.72,2.88c11.73,16.67 18.52,36.83 18.52,58.84c0,22.01 -7,41.97 -18.52,58.85c5.76,1.85 12.14,2.88 18.72,2.88zM668.78,546.15c17.08,15.02 28.39,34.16 28.39,58.44v41.15h61.73v-41.15c0,-31.69 -48.76,-51.24 -90.12,-58.44z" fill="#1de9b6"/>
	</g>
</svg>